<svg xmlns="http://www.w3.org/2000/svg" width="1440" height="1024" viewBox="0 0 1440 1024" fill="none">
<rect width="1440" height="1024" fill="#F5F5F5" id="VICE-CHANCELLOR'S OFFICE"/>
<g id="Desktop - 1" clip-path="url(#clip0_60_10)">
<rect width="1440" height="1024" fill="white" id="VICE-CHANCELLOR'S OFFICE"/>
<rect id="TRANSCRIPT OFFICE" x="0.5" y="832.5" width="266" height="191" fill="#D9D9D9" stroke="black"/>
<rect id="Rectangle 2" x="394.5" y="832.5" width="199" height="191" fill="#D9D9D9" stroke="black"/>
<rect id="STORE-ROOM" x="0.5" y="628.5" width="266" height="203" fill="#D9D9D9" stroke="black"/>
<rect id="PA TO THE RECTOR RECTOR" x="394.5" y="642.5" width="199" height="189" fill="#D9D9D9" stroke="black"/>
<rect id="QUALITY CONTROL" x="1120.5" y="628.5" width="319" height="395" fill="#D9D9D9" stroke="black"/>
<rect id="BURSARY" x="889.5" y="836.5" width="230" height="187" fill="#D9D9D9" stroke="black"/>
<rect id="FINANCE OFFICE" x="889.5" y="642.5" width="230" height="193" fill="#D9D9D9" stroke="black"/>
<rect id="Rectangle 8" x="594.5" y="767.5" width="129" height="256" fill="#D9D9D9" stroke="black"/>
<rect id="Rectangle 9" x="750.5" y="767.5" width="138" height="256" fill="#D9D9D9" stroke="black"/>
<rect id="RESTROOMS" x="0.5" y="394.5" width="162" height="235" fill="#D9D9D9" stroke="black"/>
<rect id="VICE-CHANCELLOR'S OFFICE" x="0.5" y="0.5" width="266" height="393" fill="#D9D9D9" stroke="black"/>
<rect id="P.A. TO THE VC" x="267.5" y="0.5" width="226" height="194" fill="#D9D9D9" stroke="black"/>
<rect id="ADMINISTRATIVE ASSISTANT" x="267.5" y="195.5" width="226" height="198" fill="#D9D9D9" stroke="black"/>
<rect id="CONFERENCE HALL" x="494.5" y="0.5" width="537" height="194" fill="#D9D9D9" stroke="black"/>
<rect id="DEPUTY VICE-CHANCELLOR" x="1289.5" y="0.5" width="150" height="393" fill="#D9D9D9" stroke="black"/>
<rect id="DIR. OF MARKETING" x="1032.5" y="0.5" width="256" height="194" fill="#D9D9D9" stroke="black"/>
<rect id="Rectangle 17" x="1032.5" y="195.5" width="256" height="198" fill="#D9D9D9" stroke="black"/>
<line id="Line 1" x1="163" y1="493" x2="219" y2="493" stroke="black" stroke-width="2"/>
<line id="Line 2" x1="163" y1="534.5" x2="219" y2="534.5" stroke="black"/>
<line id="Line 3" x1="257.982" y1="712.5" x2="313.982" y2="710.5" stroke="black"/>
<line id="Line 4" x1="260.019" y1="764.5" x2="314.018" y2="766.5" stroke="black"/>
<line id="Line 5" x1="256.043" y1="922.502" x2="314.043" y2="927.502" stroke="white"/>
<line id="Line 7" x1="262" y1="948.5" x2="314" y2="948.5" stroke="black"/>
<line id="Line 8" x1="406.971" y1="949.499" x2="354.971" y2="946.499" stroke="black"/>
<line id="Line 9" x1="408.981" y1="988.5" x2="354.982" y2="986.5" stroke="black"/>
<line id="Line 10" x1="407" y1="737.5" x2="355" y2="737.5" stroke="black"/>
<line id="Line 11" x1="407" y1="778.5" x2="355" y2="778.5" stroke="black"/>
<line id="Line 12" x1="481" y1="283.5" x2="538" y2="283.5" stroke="black"/>
<line id="Line 13" x1="480.982" y1="324.5" x2="537.982" y2="322.5" stroke="black"/>
<line id="Line 14" x1="243" y1="246.5" x2="314" y2="246.5" stroke="black"/>
<line id="Line 15" x1="261.906" y1="304.509" x2="313.906" y2="294.509" stroke="black"/>
<line id="Line 16" x1="399.499" y1="171.037" x2="394.499" y2="238.037" stroke="black"/>
<line id="Line 17" x1="449.498" y1="175.048" x2="442.498" y2="247.048" stroke="black"/>
<line id="Line 18" x1="583.5" y1="166.986" x2="585.5" y2="237.986" stroke="black"/>
<line id="Line 19" x1="624.5" y1="170.985" x2="626.5" y2="237.985" stroke="black"/>
<line id="Line 20" x1="1051.02" y1="282.5" x2="1005.02" y2="284.5" stroke="black"/>
<line id="Line 21" x1="1055" y1="325.5" x2="1005" y2="325.5" stroke="black"/>
<line id="Line 22" x1="1146.5" y1="182" x2="1146.5" y2="238" stroke="black"/>
<line id="Line 23" x1="1196.5" y1="177.983" x2="1198.5" y2="237.983" stroke="black"/>
<line id="Line 24" x1="1330.06" y1="273.496" x2="1257.06" y2="282.496" stroke="black"/>
<line id="Line 25" x1="1336.96" y1="331.499" x2="1256.96" y2="325.499" stroke="black"/>
<line id="Line 26" x1="1151" y1="737.5" x2="1092" y2="737.5" stroke="black"/>
<line id="Line 27" x1="1151" y1="778.5" x2="1092" y2="778.491" stroke="black"/>
<line id="Line 28" x1="967.5" y1="809.982" x2="969.5" y2="864.982" stroke="black"/>
<line id="Line 29" x1="999.496" y1="814.94" x2="1005.5" y2="864.94" stroke="black"/>
<line id="Line 30" x1="1003.5" y1="587.006" x2="1002.5" y2="670.006" stroke="black"/>
<line id="Line 31" x1="969.5" y1="592" x2="969.5" y2="670" stroke="black"/>
<g id="Rectangle 19">
<rect x="613" y="450" width="300" height="124" fill="#D9D9D9" id="FOURTH Floor"/>
<rect x="613" y="450" width="300" height="124" fill="white" id="FOURTH Floor"/>
</g>
<line id="Line 32" x1="919.499" y1="160.026" x2="915.499" y2="238.026" stroke="black"/>
<line id="Line 33" x1="966.5" y1="162.98" x2="969.5" y2="237.98" stroke="black"/>
</g>
<line id="Line 6" x1="262" y1="987.5" x2="318" y2="987.5" stroke="black"/>
<defs>
<clipPath id="clip0_60_10">
<rect width="1440" height="1024" fill="white" id="VICE-CHANCELLOR'S OFFICE"/>
</clipPath>
</defs>
<text x="10" y="35" font-size="14" fill="black">VICE-CHANCELLOR'S OFFICE</text><text x="1042" y="35" font-size="14" fill="black">DIR. OF MARKETING</text><text x="10" y="429" font-size="14" fill="black">RESTROOMS</text><text x="623" y="485" font-size="14" fill="black">FOURTH Floor</text><text x="10" y="663" font-size="14" fill="black">STORE-ROOM</text><text x="10" y="867" font-size="14" fill="black">TRANSCRIPT OFFICE</text><text x="404" y="677" font-size="14" fill="black">PA TO THE RECTOR RECTOR</text><text x="899" y="659" font-size="14" fill="black">FINANCE OFFICE</text><text x="899" y="871" font-size="14" fill="black">BURSARY</text><text x="1130" y="663" font-size="14" fill="black">QUALITY CONTROL</text><text x="514" y="25" font-size="13" fill="black">CONFERENCE HALL</text><text x="514" y="45" font-size="13" fill="black">CENTRAL</text><text x="272" y="210" font-size="12" fill="black">ADMINISTRATIVE ASSISTANT</text><text x="272" y="227" font-size="12" fill="black">TO THE VO'S OFFICE</text><text x="272" y="20" font-size="13" fill="black">P.A. TO THE VC</text><text x="1294" y="15" font-size="11" fill="black">DEPUTY VICE-CHANCELLOR</text><text x="1294" y="30" font-size="11" fill="black">IN CHARGE OF ACADEMIC</text><text x="1294" y="45" font-size="11" fill="black">AFFAIRS AND ADMINISTRATION</text></svg>
